<svg width="18" height="18" viewBox="0 0 18 18" fill="none" xmlns="http://www.w3.org/2000/svg">
<g clip-path="url(#clip0_948_13581)">
<path d="M16.541 7.79673C16.4709 7.78535 16.3999 7.78009 16.3289 7.78101H4.23494L4.49865 7.65836C4.75642 7.53635 4.99092 7.37031 5.19166 7.16773L8.5831 3.77629C9.02976 3.3499 9.10481 2.66399 8.76095 2.15109C8.36075 1.60454 7.59327 1.48587 7.04668 1.88608C7.00252 1.91843 6.96055 1.95369 6.92111 1.99164L0.788303 8.12445C0.309024 8.60319 0.308603 9.3798 0.787345 9.85908C0.787652 9.85939 0.787997 9.85973 0.788303 9.86004L6.92111 15.9929C7.40077 16.4712 8.17738 16.4701 8.65574 15.9904C8.69338 15.9527 8.72853 15.9125 8.76095 15.8702C9.10481 15.3573 9.02976 14.6714 8.5831 14.245L5.19779 10.8474C5.01783 10.6673 4.81093 10.5162 4.58451 10.3997L4.21654 10.2341H16.2614C16.888 10.2574 17.4377 9.81971 17.5554 9.20383C17.6638 8.53516 17.2097 7.9052 16.541 7.79673Z" fill="#3A10E5"/>
</g>
<defs>
<clipPath id="clip0_948_13581">
<rect width="17.1429" height="17.1429" fill="white" transform="translate(0.428574 0.428574)"/>
</clipPath>
</defs>
</svg>
